<svg width="19" height="17" viewBox="0 0 19 17" fill="none" xmlns="http://www.w3.org/2000/svg">
<path d="M15.0902 0.841428L17.6377 15.1783C17.6663 15.3471 17.6426 15.5206 17.5698 15.6756C17.4971 15.8306 17.3788 15.9597 17.2307 16.0456C17.0826 16.1315 16.9118 16.1702 16.7411 16.1564C16.5705 16.1427 16.4081 16.0771 16.2757 15.9686L10.2558 11.4503C9.96514 11.2332 9.61211 11.1159 9.24935 11.1159C8.8866 11.1159 8.53356 11.2332 8.24295 11.4503L2.21294 15.9669C2.08063 16.0753 1.91844 16.1407 1.74798 16.1545C1.57753 16.1682 1.40693 16.1297 1.25894 16.044C1.11095 15.9583 0.992602 15.8296 0.919696 15.6749C0.846789 15.5202 0.822786 15.3469 0.850889 15.1783L3.39674 0.841428" stroke="black" stroke-width="1.66667" stroke-linecap="round" stroke-linejoin="round"/>
</svg>
