<svg width="30" height="30" viewBox="0 0 30 30" fill="none" xmlns="http://www.w3.org/2000/svg">
<path d="M4.81054 10.7749C4.6281 9.95304 4.65611 9.09843 4.89199 8.2903C5.12787 7.48217 5.56398 6.74668 6.15988 6.15203C6.75578 5.55738 7.49218 5.12281 8.3008 4.88862C9.10942 4.65443 9.96409 4.62821 10.7855 4.81238C11.2377 4.10525 11.8605 3.52333 12.5967 3.12023C13.3329 2.71714 14.1587 2.50586 14.998 2.50586C15.8374 2.50586 16.6632 2.71714 17.3994 3.12023C18.1355 3.52333 18.7584 4.10525 19.2105 4.81238C20.0333 4.62741 20.8894 4.65351 21.6993 4.88827C22.5092 5.12303 23.2466 5.5588 23.8429 6.15507C24.4391 6.75134 24.8749 7.48872 25.1097 8.29863C25.3444 9.10854 25.3705 9.96467 25.1855 10.7874C25.8927 11.2395 26.4746 11.8624 26.8777 12.5986C27.2808 13.3348 27.4921 14.1606 27.4921 14.9999C27.4921 15.8392 27.2808 16.665 26.8777 17.4012C26.4746 18.1374 25.8927 18.7602 25.1855 19.2124C25.3697 20.0338 25.3435 20.8885 25.1093 21.6971C24.8751 22.5057 24.4405 23.2421 23.8459 23.838C23.2512 24.4339 22.5157 24.8701 21.7076 25.1059C20.8995 25.3418 20.0449 25.3698 19.223 25.1874C18.7715 25.8972 18.1481 26.4816 17.4107 26.8865C16.6733 27.2914 15.8456 27.5037 15.0043 27.5037C14.163 27.5037 13.3353 27.2914 12.5979 26.8865C11.8604 26.4816 11.2371 25.8972 10.7855 25.1874C9.96409 25.3715 9.10942 25.3453 8.3008 25.1111C7.49218 24.8769 6.75578 24.4424 6.15988 23.8477C5.56398 23.2531 5.12787 22.5176 4.89199 21.7095C4.65611 20.9013 4.6281 20.0467 4.81054 19.2249C4.09799 18.7739 3.51106 18.1501 3.10435 17.4114C2.69765 16.6727 2.48437 15.8431 2.48438 14.9999C2.48437 14.1566 2.69765 13.3271 3.10435 12.5884C3.51106 11.8497 4.09799 11.2258 4.81054 10.7749Z" stroke="#3E5773" stroke-width="1.5" stroke-linecap="round" stroke-linejoin="round"/>
<path d="M20 10H12.5C11.837 10 11.2011 10.2634 10.7322 10.7322C10.2634 11.2011 10 11.837 10 12.5C10 13.163 10.2634 13.7989 10.7322 14.2678C11.2011 14.7366 11.837 15 12.5 15H17.5C18.163 15 18.7989 15.2634 19.2678 15.7322C19.7366 16.2011 20 16.837 20 17.5C20 18.163 19.7366 18.7989 19.2678 19.2678C18.7989 19.7366 18.163 20 17.5 20H10" stroke="#3E5773" stroke-width="1.5" stroke-linecap="round" stroke-linejoin="round"/>
<path d="M15 22.5V7.5" stroke="#3E5773" stroke-width="1.5" stroke-linecap="round" stroke-linejoin="round"/>
</svg>
