<svg width="30" height="30" viewBox="0 0 30 30" fill="none" xmlns="http://www.w3.org/2000/svg">
<path d="M25 3.75H18.75C18.0596 3.75 17.5 4.30964 17.5 5V11.25C17.5 11.9404 18.0596 12.5 18.75 12.5H25C25.6903 12.5 26.25 11.9404 26.25 11.25V5C26.25 4.30964 25.6903 3.75 25 3.75Z" stroke="#3E5773" stroke-width="1.5" stroke-linecap="round" stroke-linejoin="round"/>
<path d="M12.5 26.25V10C12.5 9.66848 12.3683 9.35054 12.1339 9.11612C11.8995 8.8817 11.5815 8.75 11.25 8.75H5C4.66848 8.75 4.35054 8.8817 4.11612 9.11612C3.8817 9.35054 3.75 9.66848 3.75 10V25C3.75 25.3315 3.8817 25.6495 4.11612 25.8839C4.35054 26.1183 4.66848 26.25 5 26.25H20C20.3315 26.25 20.6494 26.1183 20.8839 25.8839C21.1183 25.6495 21.25 25.3315 21.25 25V18.75C21.25 18.4185 21.1183 18.1005 20.8839 17.8661C20.6494 17.6317 20.3315 17.5 20 17.5H3.75" stroke="#3E5773" stroke-width="1.5" stroke-linecap="round" stroke-linejoin="round"/>
</svg>
