<svg width="20" height="20" viewBox="0 0 20 20" fill="none" xmlns="http://www.w3.org/2000/svg">
<path d="M2.5 9.16602H5C5.44203 9.16602 5.86595 9.34161 6.17851 9.65417C6.49107 9.96673 6.66667 10.3907 6.66667 10.8327V13.3327C6.66667 13.7747 6.49107 14.1986 6.17851 14.5112C5.86595 14.8238 5.44203 14.9993 5 14.9993H4.16667C3.72464 14.9993 3.30072 14.8238 2.98816 14.5112C2.67559 14.1986 2.5 13.7747 2.5 13.3327V9.16602ZM2.5 9.16602C2.5 8.1811 2.69399 7.20583 3.0709 6.29589C3.44781 5.38595 4.00026 4.55915 4.6967 3.86271C5.39314 3.16628 6.21993 2.61383 7.12987 2.23692C8.03982 1.86001 9.01509 1.66602 10 1.66602C10.9849 1.66602 11.9602 1.86001 12.8701 2.23692C13.7801 2.61383 14.6069 3.16628 15.3033 3.86271C15.9997 4.55915 16.5522 5.38595 16.9291 6.29589C17.306 7.20583 17.5 8.1811 17.5 9.16602M17.5 9.16602V13.3327C17.5 13.7747 17.3244 14.1986 17.0118 14.5112C16.6993 14.8238 16.2754 14.9993 15.8333 14.9993H15C14.558 14.9993 14.134 14.8238 13.8215 14.5112C13.5089 14.1986 13.3333 13.7747 13.3333 13.3327V10.8327C13.3333 10.3907 13.5089 9.96673 13.8215 9.65417C14.134 9.34161 14.558 9.16602 15 9.16602H17.5Z" stroke="white" stroke-width="0.833333" stroke-linecap="round" stroke-linejoin="round"/>
<path d="M17.5 13.334V15.0007C17.5 15.8847 17.1488 16.7326 16.5237 17.3577C15.8986 17.9828 15.0507 18.334 14.1667 18.334H10" stroke="white" stroke-width="0.833333" stroke-linecap="round" stroke-linejoin="round"/>
</svg>
