<svg width="30" height="30" viewBox="0 0 30 30" fill="none" xmlns="http://www.w3.org/2000/svg">
<path d="M12.5 18.75H7.5C6.17392 18.75 4.90215 19.2768 3.96447 20.2145C3.02678 21.1521 2.5 22.4239 2.5 23.75V26.25" stroke="#3E5773" stroke-width="1.5" stroke-linecap="round" stroke-linejoin="round"/>
<path d="M17.8828 20.663L19.0366 20.1855" stroke="#3E5773" stroke-width="1.5" stroke-linecap="round" stroke-linejoin="round"/>
<path d="M19.0366 17.3147L17.8828 16.8359" stroke="#3E5773" stroke-width="1.5" stroke-linecap="round" stroke-linejoin="round"/>
<path d="M21.0647 15.2846L20.5859 14.1309" stroke="#3E5773" stroke-width="1.5" stroke-linecap="round" stroke-linejoin="round"/>
<path d="M21.0647 22.2148L20.5859 23.3698" stroke="#3E5773" stroke-width="1.5" stroke-linecap="round" stroke-linejoin="round"/>
<path d="M23.9375 15.2846L24.4162 14.1309" stroke="#3E5773" stroke-width="1.5" stroke-linecap="round" stroke-linejoin="round"/>
<path d="M24.415 23.3698L23.9375 22.2148" stroke="#3E5773" stroke-width="1.5" stroke-linecap="round" stroke-linejoin="round"/>
<path d="M25.9648 17.3147L27.1198 16.8359" stroke="#3E5773" stroke-width="1.5" stroke-linecap="round" stroke-linejoin="round"/>
<path d="M25.9648 20.1855L27.1198 20.6643" stroke="#3E5773" stroke-width="1.5" stroke-linecap="round" stroke-linejoin="round"/>
<path d="M22.5 22.5C24.5711 22.5 26.25 20.8211 26.25 18.75C26.25 16.6789 24.5711 15 22.5 15C20.4289 15 18.75 16.6789 18.75 18.75C18.75 20.8211 20.4289 22.5 22.5 22.5Z" stroke="#3E5773" stroke-width="1.5" stroke-linecap="round" stroke-linejoin="round"/>
<path d="M11.25 13.75C14.0114 13.75 16.25 11.5114 16.25 8.75C16.25 5.98858 14.0114 3.75 11.25 3.75C8.48858 3.75 6.25 5.98858 6.25 8.75C6.25 11.5114 8.48858 13.75 11.25 13.75Z" stroke="#3E5773" stroke-width="1.5" stroke-linecap="round" stroke-linejoin="round"/>
</svg>
